<svg class="icon" style="width: 1em;height: 1em;vertical-align: middle;fill: currentColor;overflow: hidden;" viewBox="0 0 1024 1024" version="1.1" xmlns="http://www.w3.org/2000/svg"><path d="M813.2608 1011.5072H210.7392c-108.9536 0-198.0416-89.088-198.0416-198.0416V210.7392c0-108.9536 89.088-198.0416 198.0416-198.0416h602.7264c108.9536 0 198.0416 89.088 198.0416 198.0416v602.7264c0 108.9536-89.088 198.0416-198.2464 198.0416z" fill="#B29E77" /><path d="M474.3168 451.1744c-0.4096-8.3968-2.4576-12.4928-6.5536-12.4928-9.4208 1.4336-34.816 6.144-76.3904 14.5408-14.5408 1.2288-29.2864 3.2768-44.2368 5.9392 0.6144-9.8304 1.2288-18.432 1.4336-26.2144 3.2768-1.4336 8.8064-3.2768 16.1792-6.144 25.1904-9.4208 41.7792-16.1792 49.7664-20.0704 8.8064-3.072 15.36-5.9392 19.6608-8.6016 6.3488-2.2528 9.6256-5.5296 9.6256-9.6256 0-1.4336-1.4336-2.6624-4.096-4.096-3.072-1.6384-5.9392-3.8912-8.6016-6.5536-6.7584-3.6864-10.4448-6.144-11.0592-7.5776h-2.4576c-9.4208 12.0832-32.1536 27.4432-68.4032 46.2848 1.2288-25.8048 2.2528-42.5984 3.072-50.3808 0-2.6624-0.8192-4.9152-2.4576-6.5536-6.7584 0-12.4928-0.6144-17.2032-2.048 14.1312-1.4336 29.696-2.6624 46.8992-4.096 17.8176-1.4336 35.0208-2.4576 51.8144-3.4816 4.096 1.024 7.3728 1.4336 10.0352 1.4336 0.6144 0 1.024-1.2288 1.024-3.4816-1.024-4.096-1.8432-8.8064-2.4576-14.5408-0.4096-7.7824-1.6384-11.4688-4.096-11.4688-3.2768 0-21.7088 2.6624-55.296 7.9872-33.1776 5.12-60.6208 9.0112-82.5344 12.0832-19.8656 4.096-48.7424 7.168-86.6304 9.6256-12.4928 1.4336-23.9616 2.6624-34.6112 4.096h-26.624c0 2.6624 0.8192 5.5296 2.4576 8.6016 1.024 4.096 2.2528 9.216 3.4816 15.5648 0.6144 4.3008 1.8432 6.5536 3.4816 6.5536 3.072 0 17.6128-3.4816 43.8272-10.6496 13.1072-2.2528 25.8048-4.3008 38.2976-5.5296 0.4096 1.2288 0.6144 2.4576 1.024 3.4816 1.024 11.0592 1.8432 21.9136 2.4576 32.768l-5.5296-4.5056c-22.528 10.6496-40.1408 19.0464-52.8384 24.576-17.2032 6.7584-26.8288 10.0352-29.2864 10.0352-1.024 1.024-2.8672 1.4336-5.5296 1.4336l-1.024 2.048c1.2288 1.4336 3.4816 3.2768 6.5536 6.144 3.072 4.3008 5.7344 7.7824 7.9872 10.6496 1.024 1.4336 2.048 2.4576 3.072 3.4816h4.096c6.3488 0 19.8656-7.3728 40.7552-22.1184 11.6736-9.4208 22.3232-19.2512 31.744-29.696 1.4336 21.0944 2.048 42.5984 2.048 64.512-18.0224 1.4336-21.2992 1.2288-42.8032 3.8912-16.384 2.2528-28.8768 3.4816-37.2736 3.4816-13.5168 1.4336-26.2144 2.048-38.2976 2.048l-1.024 2.048c1.4336 3.072 3.2768 7.7824 5.5296 14.5408 3.6864 9.4208 6.144 14.1312 7.5776 14.1312 3.6864 0 10.6496-1.4336 20.6848-4.5056 8.3968-2.6624 22.7328-5.9392 43.2128-9.6256 21.504-4.096 28.672-6.144 54.8864-10.4448 52.6336-7.7824 110.592-12.9024 173.6704-15.5648 24.1664 0 39.3216 0.6144 45.8752 2.048 1.024 0 1.4336-0.6144 1.4336-2.048-2.6624-5.3248-4.7104-12.6976-6.3488-21.9136m-150.528 11.6736c-5.9392 0-12.4928 0.6144-19.0464 2.048-10.4448 1.4336-21.9136 2.6624-34.2016 4.096v-79.872c-0.4096-6.9632-0.4096-11.8784-0.4096-14.5408 0-2.2528-1.2288-4.096-3.4816-5.5296-2.4576 0-5.3248-0.6144-9.0112-2.048 11.6736-1.2288 23.1424-2.6624 34.2016-4.096 9.8304-1.6384 20.48-3.2768 32.1536-4.5056v104.448zM216.6784 522.8544c-1.6384-1.8432-2.8672-2.2528-4.096-3.6864-4.7104-4.7104-9.4208-6.3488-10.8544-10.4448l-3.6864 0.6144c-0.6144 2.6624-1.024 4.5056-1.4336 5.9392-2.048 8.192-2.2528 10.4448-19.0464 50.5856-9.6256 21.0944-19.456 40.1408-29.2864 57.1392-20.48 33.3824-41.7792 58.5728-63.6928 75.776-0.4096 1.2288 0.8192 2.2528 3.4816 2.8672 20.2752 0.6144 40.3456-13.7216 62.8736-40.3456 33.792-39.936 63.0784-107.3152 64.512-109.7728 4.5056-7.168 9.216-13.9264 10.4448-19.2512 0.2048-1.024 0.2048-1.4336-0.2048-1.6384-3.072-3.8912-4.5056-3.6864-9.0112-7.7824M743.8336 519.168c-3.2768-2.048-5.5296-3.8912-7.7824-5.7344-1.4336-1.2288-2.8672-1.6384-3.8912-2.2528-2.2528-1.4336-5.12-2.8672-7.3728-2.8672-1.024 0-1.6384 3.4816-1.6384 3.4816 0 4.7104 0 14.336-9.6256 36.4544-5.9392 13.9264-11.0592 19.0464-18.432 26.4192-15.5648 15.9744-26.624 17.408-46.8992 29.2864 0 2.4576 1.4336 3.6864 4.5056 3.6864 22.528-1.2288 39.3216-3.2768 51.8144-13.1072 14.336-11.6736 21.504-19.8656 32.5632-44.6464 9.4208-16.384 11.6736-21.504 11.6736-24.576-0.2048-2.2528-1.8432-4.3008-4.9152-6.144M909.9264 592.0768c-3.4816-14.336-6.3488-27.4432-8.3968-39.3216-1.024-1.024-2.048-1.6384-2.8672-1.6384-0.6144 15.36-1.4336 29.0816-2.4576 40.96-0.6144 8.3968-2.048 14.7456-4.5056 19.456-1.6384 2.2528-5.3248 3.6864-10.8544 4.9152-5.9392 1.8432-16.9984 2.8672-33.1776 2.8672-31.744-1.024-48.128-11.264-48.9472-30.3104 1.8432-27.2384 5.3248-52.6336 10.0352-75.9808-0.8192-1.024-1.4336-1.6384-2.048-1.6384-5.9392-2.048-11.6736-3.6864-17.2032-4.7104-3.072-0.4096-3.072-1.2288-5.3248-1.2288-1.2288 0-3.2768 1.2288-2.6624 3.8912 0.4096 3.8912 0.6144 6.7584 0.6144 11.6736-2.4576 40.96-3.6864 65.7408-3.6864 74.5472 0 28.8768 29.0816 43.2128 87.4496 43.2128 35.0208 0 52.6336-3.6864 52.6336-10.8544-0.8192-6.9632-3.6864-18.8416-8.6016-35.84M832.512 491.1104c16.7936-1.024 32.768-0.6144 48.128-2.048 3.2768 1.4336 6.144 2.048 8.3968 2.048 0.8192 0 1.2288-1.2288 1.2288-3.6864-1.024-2.8672-1.8432-8.192-2.4576-12.4928-0.2048-7.5776-1.4336-11.264-3.6864-11.264-2.8672 0-20.0704 2.048-50.9952 6.144-21.9136 2.4576-45.2608 3.8912-61.6448 4.9152 0.6144-22.7328 1.2288-42.5984 2.048-61.2352 11.0592-0.8192 28.4672-2.048 43.6224-3.2768 10.24-1.024 20.0704-1.6384 29.4912-1.6384 3.2768 0 6.144 1.4336 8.3968 1.024 1.2288-0.2048 1.024-1.6384 0.8192-2.6624-1.024-3.4816-1.8432-7.3728-2.4576-11.6736-0.2048-6.144-1.4336-10.0352-3.2768-11.264-1.8432 0-12.4928 2.2528-31.9488 6.9632-15.36 2.2528-32.768 3.8912-43.8272 5.7344 0.6144-14.7456 1.024-25.6 1.2288-32.3584 0.6144-5.12 1.2288-11.6736 2.048-19.456 1.4336-2.8672 2.2528-7.3728 2.4576-12.9024-0.6144-1.024-1.4336-2.2528-2.8672-3.2768-1.4336 0-3.4816-0.6144-6.5536-1.6384-11.0592-1.8432-18.0224-3.2768-21.0944-4.5056l-1.2288 1.6384c1.8432 7.5776 3.2768 21.504 4.5056 41.5744 0 11.8784-0.2048 23.1424-0.4096 33.9968-9.6256 1.024-10.4448 2.6624-24.3712 4.096-7.3728 1.024-13.7216 1.6384-19.6608 2.6624h-0.4096c2.8672-6.7584 5.3248-12.0832 6.9632-16.1792 2.6624-6.7584 4.7104-11.264 6.144-13.312 2.4576-2.8672 3.6864-4.9152 3.6864-6.144 0-2.2528-2.048-3.2768-6.144-3.2768-4.9152-2.4576-9.0112-4.7104-12.0832-6.9632-6.5536-3.072-10.24-4.9152-11.264-6.144-0.6144 0-1.2288 0.6144-2.048 1.6384 0.8192 1.8432 1.2288 3.8912 1.2288 6.144 0 14.1312-4.096 32.3584-12.4928 55.0912-2.2528 9.6256-11.6736 26.4192-28.2624 50.176 0 1.024 1.024 1.6384 3.2768 1.6384h4.9152c5.3248-2.2528 15.7696-13.9264 31.1296-35.6352 1.6384-3.2768 3.2768-6.3488 4.9152-9.216 0.6144 2.8672 1.4336 4.5056 2.4576 4.5056 1.6384 0 9.8304-1.4336 24.9856-5.5296 13.7216-2.2528 15.36-4.5056 27.648-6.7584v60.416c-18.0224 2.2528-32.1536 4.7104-66.3552 6.5536-11.264 1.024-18.2272 1.2288-28.4672 1.8432-14.336 0.8192-22.3232 0.6144-24.3712 1.6384 0 1.4336 0.6144 3.6864 1.6384 6.9632 0.8192 2.2528 1.8432 5.7344 3.2768 10.8544 0.6144 4.5056 1.4336 6.9632 2.8672 6.9632 2.8672 0 12.4928-2.2528 36.4544-6.9632 15.1552-2.2528 25.6-3.072 32.768-4.096s14.1312-1.4336 19.456-2.048c10.24-1.024 16.9984-2.2528 26.4192-3.2768 7.168-1.024 59.1872-4.3008 75.776-4.3008M583.8848 368.0256c7.9872-13.5168 11.264-21.2992 11.8784-29.9008l3.6864-1.8432c3.4816 1.8432 4.9152 3.072 11.6736 4.5056 4.9152 1.024 8.8064 1.6384 11.6736 2.2528 3.2768 0.6144 5.3248 1.6384 6.144 3.2768 1.2288 2.6624 0.6144 5.3248-2.4576 7.9872-6.7584 8.6016-15.1552 17.2032-25.3952 26.4192-9.216 8.6016-20.6848 17.6128-33.9968 27.2384-2.2528-0.8192-4.5056-1.8432-6.5536-3.072 5.7344-7.9872 13.5168-20.0704 23.3472-36.864" fill="#FFFFFF" /><path d="M748.544 643.072c-18.0224-3.4816-59.392-10.6496-65.536-12.0832-38.2976-7.7824-62.2592-12.4928-79.0528-15.36 3.2768-2.6624 13.7216-17.8176 19.0464-24.7808 6.3488-7.7824 9.6256-14.336 9.6256-20.0704 0-5.12-4.3008-10.24-13.1072-15.5648-5.9392-4.3008-13.1072-9.6256-21.0944-16.1792-9.0112-5.7344-13.5168-9.8304-13.5168-12.4928 0-3.6864 2.8672-9.6256 8.6016-18.0224 1.6384-3.4816 6.5536-13.1072 6.5536-13.1072 11.8784-23.9616 22.9376-37.2736 28.2624-41.1648 1.6384 0 2.4576-0.8192 2.4576-2.8672 0-1.024-3.8912-5.12-12.0832-12.0832-6.3488-6.3488-10.4448-10.0352-12.0832-11.264H604.16c-1.2288 2.048-2.048 4.3008-3.072 6.5536-30.1056 4.5056-15.9744 2.4576-43.8272 5.9392-17.6128 2.2528-9.8304 1.2288-26.0096 1.024-2.2528 0-3.2768 1.024-3.2768 3.2768 1.6384 3.4816 3.2768 6.9632 5.12 10.24 2.048 6.5536 3.4816 9.6256 4.3008 9.8304 2.2528 0.6144 6.5536-2.2528 31.3344-5.9392 17.408-2.6624 20.6848-2.8672 25.3952-2.8672-5.12 15.9744-12.6976 25.6-19.0464 39.7312 0 0-5.3248 12.4928-10.0352 18.2272-9.8304 5.3248-10.6496 11.8784-10.6496 15.5648 0 4.3008 3.2768 7.7824 10.0352 10.6496 6.3488 2.6624 9.8304 5.5296 16.5888 10.4448 8.3968 6.9632 18.6368 13.9264 23.552 26.0096 0 4.5056-6.144 12.9024-13.5168 21.2992-1.6384 1.8432-8.192 9.216-10.4448 11.264-3.6864 3.2768-7.7824 6.144-10.0352 7.5776-13.5168 7.7824-21.9136 15.5648-33.9968 16.9984-2.6624 1.6384-4.096 3.8912-4.096 6.5536 5.7344 5.7344 7.7824 8.192 13.9264 16.5888 4.3008 8.6016 7.3728 13.312 10.0352 13.312 2.2528 0 6.144-3.2768 11.6736-9.6256 16.1792-20.48 20.6848-25.1904 26.4192-25.1904 8.8064 0 55.7056 8.8064 140.9024 26.624 31.1296 6.7584 43.2128 9.0112 72.9088 20.2752 22.7328 9.0112 37.888 13.5168 45.2608 13.5168 6.144-1.4336 12.6976-3.2768 20.0704-5.5296 6.3488-1.4336 15.36-4.096 27.2384-7.9872 23.7568-8.3968 35.6352-13.1072 35.6352-14.1312 2.048-1.4336 3.072-3.2768 3.072-6.144-41.7792-1.6384-71.2704-0.2048-123.904-6.9632-26.2144-3.6864-43.6224-7.7824-67.1744-12.0832" fill="#FFFFFF" /></svg>
